<svg width="116" height="116" viewBox="0 0 116 116" fill="none" xmlns="http://www.w3.org/2000/svg">
<g filter="url(#filter0_i_676_7050)">
<path d="M58 0C25.9705 0 0 26.6437 0 59.4759C0 85.7571 16.6232 108.025 39.6679 115.896C39.9911 115.967 40.321 116.001 40.6518 116C42.8009 116 43.6295 114.42 43.6295 113.048C43.6295 111.624 43.5777 107.896 43.5518 102.924C41.6332 103.374 39.6705 103.608 37.7 103.623C26.5402 103.623 24.0027 94.9491 24.0027 94.9491C21.3616 88.0875 17.5554 86.2491 17.5554 86.2491C12.5063 82.7018 17.5295 82.5982 17.9179 82.5982H17.9438C23.7696 83.116 26.825 88.7607 26.825 88.7607C29.725 93.8357 33.6089 95.2598 37.0786 95.2598C39.3728 95.2139 41.6315 94.6845 43.7071 93.7062C44.225 89.8741 45.7268 87.2589 47.3839 85.7571C34.5152 84.2553 20.9732 79.1544 20.9732 56.3687C20.9732 49.8696 23.2259 44.5616 26.9286 40.4187C26.333 38.917 24.3393 32.858 27.4982 24.6759C27.9219 24.5745 28.3574 24.5309 28.7929 24.5464C30.8902 24.5464 35.6286 25.3491 43.4482 30.7866C52.9497 28.1282 62.9985 28.1282 72.5 30.7866C80.3196 25.3491 85.058 24.5464 87.1554 24.5464C87.5908 24.5309 88.0263 24.5745 88.45 24.6759C91.6089 32.858 89.6152 38.917 89.0196 40.4187C92.7223 44.5875 94.975 49.8955 94.975 56.3687C94.975 79.2062 81.4071 84.2294 68.4866 85.7053C70.558 87.5437 72.4223 91.1687 72.4223 96.7098C72.4223 104.659 72.3446 111.08 72.3446 113.022C72.3446 114.42 73.1473 116 75.2964 116C75.6443 116.001 75.9914 115.967 76.3321 115.896C99.4027 108.025 116 85.7312 116 59.4759C116 26.6437 90.0295 0 58 0Z" fill="#AD9255"/>
</g>
<defs>
<filter id="filter0_i_676_7050" x="0" y="0" width="116" height="120" filterUnits="userSpaceOnUse" color-interpolation-filters="sRGB">
<feFlood flood-opacity="0" result="BackgroundImageFix"/>
<feBlend mode="normal" in="SourceGraphic" in2="BackgroundImageFix" result="shape"/>
<feColorMatrix in="SourceAlpha" type="matrix" values="0 0 0 0 0 0 0 0 0 0 0 0 0 0 0 0 0 0 127 0" result="hardAlpha"/>
<feOffset dy="4"/>
<feGaussianBlur stdDeviation="2"/>
<feComposite in2="hardAlpha" operator="arithmetic" k2="-1" k3="1"/>
<feColorMatrix type="matrix" values="0 0 0 0 0 0 0 0 0 0 0 0 0 0 0 0 0 0 0.25 0"/>
<feBlend mode="normal" in2="shape" result="effect1_innerShadow_676_7050"/>
</filter>
</defs>
</svg>
